<svg id="Group_12" data-name="Group 12" xmlns="http://www.w3.org/2000/svg" width="80.676" height="80.676" viewBox="0 0 80.676 80.676">
  <path id="Path_353" data-name="Path 353" d="M0,0H80.676V80.676H0Z" fill="none"/>
  <path id="Path_354" data-name="Path 354" d="M31.049,42.338V32.254h6.723V42.338H54.58A3.362,3.362,0,0,1,57.941,45.7V65.869A3.362,3.362,0,0,1,54.58,69.23H14.242a3.362,3.362,0,0,1-3.362-3.362V45.7a3.362,3.362,0,0,1,3.362-3.362ZM2.51,24.983a33.631,33.631,0,0,1,63.8,0l-6.38,2.124a26.9,26.9,0,0,0-51.041,0L2.513,24.983Zm12.76,4.252a20.179,20.179,0,0,1,38.281,0l-6.38,2.128a13.453,13.453,0,0,0-25.521,0l-6.38-2.128Z" transform="translate(5.927 4.723)" fill="#c94f9b"/>
</svg>
